# xmcd
#
# Track frame offsets:
# 150
# 15604
# 34255
# 52015
# 67066
# 90354
# 101188
# 117542
# 131690
# 148915
# 166946
#
# Disc length: 2450 seconds
#
#
# Revision: 0
# Processed by: cddbd v1.5.1PL0 Copyright (c) Steve Scherf et al.
# Submitted via: FreeRIP 2.941 
#
DISCID=a109900b
DTITLE=Monti Amundson - Big Monti
DYEAR=2005
DGENRE=Blues
TTITLE0=My American Dreams
TTITLE1=You Make A Bad Thing Worse
TTITLE2=Dirt Brown Duplex
TTITLE3=Go On Living Blues
TTITLE4=Still Got Her Suitcase
TTITLE5=When You Love Somebody
TTITLE6=Begging For Your Arms
TTITLE7=Red Hot Wire
TTITLE8=Not A Day Goes By
TTITLE9=Signs Of Life
TTITLE10=Six Shots
EXTD=
EXTT0=
EXTT1=
EXTT2=
EXTT3=
EXTT4=
EXTT5=
EXTT6=
EXTT7=
EXTT8=
EXTT9=
EXTT10=
PLAYORDER=
